<?xml version="1.0" encoding="UTF-8"?>
<!DOCTYPE svg PUBLIC "-//W3C//DTD SVG 1.1//EN"
  "http://www.w3.org/Graphics/SVG/1.1/DTD/svg11.dtd">
<!-- Created with Inkpad (http://www.taptrix.com/) --><svg xmlns:inkpad="http://taptrix.com/inkpad/svg_extensions" height="700pt" xmlns:xlink="http://www.w3.org/1999/xlink" xmlns="http://www.w3.org/2000/svg" width="700pt" version="1.1" viewBox="0,0,700,700">
<defs>
<path id="TextPath" d="M38.8584+303.266L2038.86+303.266" transform="matrix(1 -0 -0 1 114 -20)"/>
<path id="TextPath_2" d="M167.59+375.993L2167.59+375.993" transform="matrix(1 -0 -0 1 -63 -113)"/>
<path id="TextPath_3" d="M470.457+129.859L2470.46+129.859" transform="matrix(1 -0 -0 1 0 0)"/>
<path id="TextPath_4" d="M437.23+141.312L2437.23+141.312" transform="matrix(1 -0 -0 1 0 0)"/>
<path id="TextPath_5" d="M506.693+149.576L2506.69+149.576" transform="matrix(1 -0 -0 1 0 0)"/>
<path id="TextPath_6" d="M482.05+191.293L2482.05+191.293" transform="matrix(1 -0 -0 1 0 0)"/>
<path id="TextPath_7" d="M436.717+206.638L2436.72+206.638" transform="matrix(1 -0 -0 1 0 0)"/>
<path id="TextPath_8" d="M429.397+248.445L2429.4+248.445" transform="matrix(1 -0 -0 1 0 0)"/>
</defs>
<g id="" inkpad:layerName="">
<text font-size="300" font-family="'LiGothicMed'" transform="matrix(1 0 0 1 -114 20)" opacity="1" fill="#ff9e1c">
<textPath xlink:href="#TextPath" method="align" startOffset="0pt">
<![CDATA[]]></textPath>
</text>
</g>
<g id="Hu" inkpad:layerName="Hu">
<text stroke="#000000" font-family="'LiGothicMed'" stroke-width="0" fill="#000000" font-size="300" opacity="1" transform="matrix(1 0 0 1 63 113)" stroke-linejoin="round">
<textPath xlink:href="#TextPath_2" method="align" startOffset="0pt">
<![CDATA[Hu]]></textPath>
</text>
</g>
<g id="_2" inkpad:layerName="">
<text font-size="40" font-family="'ArialMT'" transform="matrix(1 0 0 1 0 0)" opacity="1" fill="#ff9e1c">
<textPath xlink:href="#TextPath_3" method="align" startOffset="0pt">
<![CDATA[]]></textPath>
</text>
</g>
<g id=" " inkpad:layerName=" ">
<text font-size="40" font-family="'ArialMT'" transform="matrix(1 0 0 1 0 0)" opacity="1" fill="#ff9e1c">
<textPath xlink:href="#TextPath_4" method="align" startOffset="0pt">
<![CDATA[t]]></textPath>
</text>
</g>
<g id=" _2" inkpad:layerName=" ">
<text font-size="40" font-family="'ArialMT'" transform="matrix(1 0 0 1 0 0)" opacity="1" fill="#ff9e1c">
<textPath xlink:href="#TextPath_5" method="align" startOffset="0pt">
<![CDATA[t]]></textPath>
</text>
</g>
<g id=" _3" inkpad:layerName=" ">
<text font-size="40" font-family="'ArialMT'" transform="matrix(1 0 0 1 0 0)" opacity="1" fill="#ff9e1c">
<textPath xlink:href="#TextPath_6" method="align" startOffset="0pt">
<![CDATA[t]]></textPath>
</text>
</g>
<g id=" _4" inkpad:layerName=" ">
<text font-size="40" font-family="'ArialMT'" transform="matrix(1 0 0 1 0 0)" opacity="1" fill="#ff9e1c">
<textPath xlink:href="#TextPath_7" method="align" startOffset="0pt">
<![CDATA[t]]></textPath>
</text>
</g>
<g id=" _5" inkpad:layerName=" ">
<text font-size="40" font-family="'ArialMT'" transform="matrix(1 0 0 1 0 0)" opacity="1" fill="#ff9e1c">
<textPath xlink:href="#TextPath_8" method="align" startOffset="0pt">
<![CDATA[t]]></textPath>
</text>
</g>
</svg>
